<?xml version="1.0" encoding="UTF-8"?>
<!DOCTYPE svg  PUBLIC '-//W3C//DTD SVG 20010904//EN'  'http://www.w3.org/TR/2001/REC-SVG-20010904/DTD/svg10.dtd'>
<svg width="960pt" height="593pt" version="1.0" viewBox="0 0 960 593" xmlns="http://www.w3.org/2000/svg">
<metadata>Created by potrace 1.16, written by Peter Selinger 2001-2019</metadata>
<g transform="translate(0 593) scale(.1 -.1)">
<path d="m382 5673c-7-3-19-18-27-33-13-25-15-219-15-1482 0-1679-11-1511 103-1523 35-4 183-5 328-3 288 3 301 6 327 64 9 18 12 229 12 773v748l25 27c36 38 101 33 130-10 14-22 16-104 15-747 0-397 2-742 6-767 12-90-11-85 374-85 329 0 340 1 360 20 20 21 20 28 21 863 0 527-4 855-10 875-5 18-15 52-22 77-26 94-82 196-149 273-23 27-153 127-165 127-3 0-24 9-48 19-87 39-135 47-272 44-78-1-117-7-175-27-41-14-78-26-82-26-5 0-8 169-8 375v376l-26 24-27 25-331-1c-182 0-337-3-344-6z"/>
<path d="m4720 4937c-3-3-30-8-60-10-83-8-140-19-146-28-3-5-14-9-25-9-10 0-42-11-71-25-28-14-58-25-65-25s-13-4-13-10c0-5-5-10-11-10-17 0-124-76-171-122-61-60-115-137-139-200-11-29-25-61-30-70-5-10-12-35-15-55-3-21-8-41-10-45-2-3-4-249-4-545 0-600 2-622 63-753 80-171 273-330 458-380 24-7 49-15 54-19 22-14 146-33 250-38 107-5 204 8 290 38 17 6 37 11 45 11 25 0 233 105 265 133 70 62 112 103 140 139 37 46 95 152 95 173 0 8 5 24 12 36 21 40 23 87 23 657 0 626 2 606-68 744-33 63-44 79-112 154-107 119-298 217-485 247-55 8-264 18-270 12zm147-689 23-21v-459-459l-25-24c-43-44-104-26-133 38-18 40-17 864 1 898 22 42 24 44 68 46 32 2 48-2 66-19z"/>
<path d="m6510 4937c-3-2-34-7-70-11-94-9-194-39-287-85-23-12-47-21-53-21-5 0-10-4-10-10 0-5-6-10-12-10-25-1-151-115-202-183-34-44-76-124-76-144 0-7-4-13-8-13-8 0-31-70-41-125-8-43-7-876 1-1030 9-177 34-251 133-390 46-65 77-95 152-149 63-45 208-119 238-121 6 0 28-6 50-12 142-42 335-58 401-33 15 6 52 15 83 20 55 8 131 30 181 53 14 6 28 11 32 11 4 1 13 7 19 14 7 6 18 12 24 12 13 0 98 54 151 98 43 34 129 143 161 202 10 19 25 55 32 80s18 56 25 70c8 18 12 191 13 590 2 483 0 573-13 620-35 126-83 216-156 294-16 16-28 33-28 37 0 5-5 9-11 9-7 0-19 8-28 18-30 33-90 72-173 114-91 45-116 53-268 83-38 8-254 18-260 12zm157-709 26-38-6-432-6-433-26-32c-30-38-67-43-101-15-43 37-44 42-44 492 0 510-2 497 93 497 34 0 42-5 64-39z"/>
<path d="m2825 4923c-11-2-56-11-100-19-79-15-166-41-235-71-110-47-226-112-244-136s-19-32-8-72c6-24 30-83 53-132 44-95 85-183 102-223 14-31 47-70 60-70 5 0 41 15 81 34 122 59 194 77 324 79 101 2 121-1 150-18 55-33 102-128 102-207v-38l-147-1c-221-2-258-6-383-46-57-18-170-75-170-85 0-5-4-8-10-8-18 0-108-99-142-157-76-130-86-173-86-378 0-166 6-205 41-300 7-16 12-33 12-36 0-4 21-40 47-80 44-71 157-188 209-218 69-41 189-99 215-104 16-3 70-15 119-26 72-16 117-20 225-17 76 2 145 8 157 15 12 6 32 11 45 11 63 1 268 88 353 151 62 45 145 133 171 179 10 19 22 37 25 40 11 10 50 118 64 176 19 79 16 1136-4 1199-25 82-86 206-121 245-14 15-38 45-54 65-77 96-278 204-445 239-65 14-353 20-406 9zm285-1506c0-81-3-93-25-123-22-29-31-34-66-32-60 2-89 40-89 115 0 81 54 133 138 131l42-1v-90z"/>
<path d="m7576 4874c-9-8-16-21-16-27v-757c-1-453 3-758 9-777 5-18 8-33 6-33-8 0 55-161 79-203 63-106 213-235 311-267 22-7 50-16 62-21 61-23 217-31 299-16 22 4 65 16 95 27 29 11 57 20 61 20 11 0-2-81-15-97-5-7-6-13-2-13 17 0-60-82-89-94-46-19-143-26-211-16-132 21-130 21-294 98-85 40-98 30-171-133-18-38-47-101-65-140-64-136-67-147-61-183 3-19 15-45 27-58 45-48 272-145 404-173 234-49 527-41 713 18 57 19 153 60 162 71 3 3 21 14 42 24 49 26 158 130 199 191 44 64 55 87 75 144 51 147 48 65 51 1269l3 1123-22 19c-22 18-44 19-348 19-296 0-327-1-345-17-46-41-45-28-45-707 0-696-1-704-52-724-13-5-37-6-55-4-65 10-62-19-65 730-3 581-5 681-18 701l-15 22h-347c-302 0-349-2-362-16z"/>
<path d="m3964 2858c-3-4-5-200-6-434v-426l23-24 22-24h337c325 0 337 1 358 20 21 20 22 27 22 261 0 144-4 248-10 259-11 21-67 39-139 45-25 3-80 16-121 31-156 54-267 123-372 230-62 62-101 84-114 62z"/>
<path d="m5752 2848c-9-9-12-115-12-417 0-367 2-409 18-441l17-35 343-3 343-2 49 49v238c-1 180-4 242-14 255-8 11-38 21-87 28-41 6-103 20-139 31-59 19-85 29-160 62-63 28-168 104-238 172-77 75-97 86-120 63z"/>
<path d="m4508 2563c6-2 18-2 25 0 6 3 1 5-13 5s-19-2-12-5z"/>
<path d="m3330 1194c-6-14-10-130-10-257 0-285 0-283 112-317 40-12 85-27 100-32 15-6 30-10 33-9s22-6 42-14 38-13 41-11c2 3 20-1 38-9 19-8 34-12 34-10 0 3 17-1 38-9 32-12 113-33 154-40 7-1 22-5 33-9 11-3 34-9 50-11 17-3 50-10 75-16 87-20 255-49 307-54 29-2 57-7 61-10 5-3 47-8 93-12 46-3 87-8 91-10 4-3 49-7 101-10 51-2 118-9 148-13 60-10 648-9 664 1 6 3 59 9 120 13 60 4 112 8 115 10s41 6 84 10c44 3 83 8 88 11 4 3 27 7 50 9 53 6 124 19 253 46 89 19 126 27 200 44 11 2 65 16 120 30 55 15 118 31 139 36 22 5 44 13 50 17 6 3 18 7 26 9 22 3 210 63 245 79 17 7 44 18 61 24 18 6 41 20 53 31 20 19 21 29 21 259v240l-25 6c-14 3-31 2-38-3-6-5-30-15-52-22s-49-16-60-21c-58-25-410-133-520-159-27-7-66-16-85-21-61-15-127-30-167-36-21-3-40-7-43-9s-26-6-50-9c-25-4-65-11-90-16-188-38-432-55-785-55s-599 17-785 55c-25 6-63 12-85 14-22 3-53 9-70 14-16 5-61 15-100 22-38 6-83 16-100 20-53 15-118 32-139 36-45 8-203 55-251 74-23 9-108 35-115 35-12 1-136 49-144 57-6 4-20 8-32 8-13 0-26 5-29 10-3 6-17 10-31 10-17 0-27-8-34-26z"/>
</g>
</svg>
